<?xml version="1.0" encoding="UTF-8"?> <svg xmlns="http://www.w3.org/2000/svg" viewBox="0 0 702.13 118.9"><path fill="#2A1943" d="M248.88,69.87c1.12-.23,2.25,.37,2.55,1.39,1.75,5.92,9.5,10.77,18.69,10.77,8.56,0,15.53-3.45,15.53-8.79,0-3.78-4.2-5.87-10.96-7.24l-15.03-3.06c-15.11-2.88-18.29-10.76-18.29-16.86,0-11.79,10.64-19.7,26.48-19.7,14.75,0,25.6,6.86,28.3,17.91h0c.2,.8-.35,1.59-1.23,1.77l-8.23,1.7c-.89,.18-1.76-.35-1.93-1.18h0c-1.25-6.21-8.6-9.84-17.19-9.84s-14.1,3.4-14.1,8.6c0,3.02,2.69,5.35,9.93,6.88l15.82,3.18c11.88,2.43,18.15,8.38,18.15,17.22,0,12.38-10.76,20.07-28.08,20.07-16.06,0-27.3-7.82-29.86-18.64-.25-1.07,.5-2.13,1.66-2.37l7.76-1.82Z"></path><path fill="#2A1943" d="M356.01,68.56c-.89-.22-1.83,.2-2.24,1.02-3.71,7.33-10.01,11.96-18.78,11.96-11.54,0-18.65-9.36-19.9-18.69h49.59c1.1,0,2-.9,2-2v-2.95c-.62-18.26-13.69-31.52-31.08-31.52-18.62,0-32.67,14.31-32.67,33.28,0,21.46,16.52,33.04,32.06,33.04,13.74,0,24.79-7.71,30.14-19.47,.52-1.14-.14-2.47-1.36-2.77l-7.76-1.9Zm-40.38-15.64c2.42-10.11,11.65-15.39,19.98-15.39,9.48,0,16.4,5.85,18.42,15.39h-38.39Z"></path><path fill="#2A1943" d="M414.3,28.05c0-.65-.46-1.22-1.1-1.35-1.42-.3-2.64-.35-3.83-.35-9.13,0-17.13,2.99-22.78,8.6v-5.57c0-1.1-.9-2-2-2h-8.38c-1.1,0-2,.9-2,2v61.32c0,1.1,.9,2,2,2h8.38c1.1,0,2-.9,2-2l.04-31.16c0-11.03,7.62-22.13,22.77-22.13,1.05,0,2.33,0,3.35,.11h.03c.81,.09,1.52-.54,1.52-1.36v-8.12Z"></path><path fill="#2A1943" d="M456.58,26.38c-8.98,0-16.83,3.05-22.49,8.68V2.08c0-1.1-.9-2-2-2h-8.26c-1.1,0-2,.9-2,2V89.7c0,1.1,.9,2,2,2h8.26c1.1,0,2-.9,2-2v-5.68c5.67,5.62,13.51,8.68,22.49,8.68,18,0,31.57-14.26,31.57-33.16s-13.57-33.16-31.57-33.16Zm19.56,33.16c0,12.88-8.65,21.88-21.03,21.88-10.34,0-21.03-8.19-21.03-21.88s10.69-22,21.03-22c12.38,0,21.03,9.05,21.03,22Z"></path><path fill="#2A1943" d="M549.04,29.38v5.68c-5.67-5.62-13.51-8.68-22.49-8.68-18,0-31.57,14.25-31.57,33.16s13.57,33.16,31.57,33.16c8.98,0,16.83-3.05,22.49-8.68v5.68c0,1.1,.9,2,2,2h8.26c1.1,0,2-.9,2-2V29.38c0-1.1-.9-2-2-2h-8.26c-1.1,0-2,.9-2,2Zm0,30.16c0,13.7-10.69,21.88-21.03,21.88-12.38,0-21.03-9-21.03-21.88s8.65-22,21.03-22c10.34,0,21.03,8.23,21.03,22Z"></path><path fill="#2A1943" d="M620.27,68.5c-2.55,7.86-9.48,12.55-18.53,12.55-12.31,0-20.9-8.85-20.9-21.52s8.79-21.64,20.9-21.64c8.93,0,15.93,5.03,18.27,13.12h0c.23,.79,1.06,1.24,1.85,1.01l8.93-2.69c.78-.24,1.22-1.06,.99-1.84h0c-3.75-12.63-15.82-21.12-30.04-21.12-18.76,0-32.91,14.25-32.91,33.16s14.15,33.16,32.91,33.16c14.54,0,26.56-8.45,29.93-21.03h0c.21-.79-.26-1.6-1.04-1.81l-8.56-2.32c-.76-.21-1.55,.22-1.8,.97h0Z"></path><path fill="#2A1943" d="M665.66,56.98l31.7-27.05c1.06-.9,.42-2.63-.97-2.63h-10.35c-1.46,0-2.88,.52-4,1.46l-27.5,23.2c-.27,.23-.61,.35-.96,.35h-.47c-.83,0-1.49-.67-1.49-1.49V2.08c0-1.1-.9-2-2-2h-8.26c-1.1,0-2,.9-2,2V90.7c0,1.1,.9,2,2,2h8.26c1.1,0,2-.9,2-2v-24.76c0-.83,.67-1.49,1.49-1.49h0c.35,0,.68,.12,.95,.34l32.32,26.51c1.11,.91,2.5,1.4,3.93,1.4h9.81c1.88,0,2.72-2.36,1.26-3.55l-35.7-29.1c-.97-.79-.99-2.26-.04-3.07Z"></path><path fill="#2A1943" d="M198.72,92.7c8.98,0,15.23-3.06,20.9-8.68v5.68c0,1.1,.9,2,2,2h8.26c1.1,0,2-.9,2-2V28.38c0-1.11-.9-2-2-2h-8.26c-1.1,0-2,.89-2,2v31.16c0,13.69-10.69,21.57-21.02,21.88-10.94,.33-20.78-8.19-20.78-21.88V28.43c0-1.11-.9-2-2-2h-8.26c-1.11,0-2,.89-2,2,0,0-.26,25.39,0,31.11,1.39,30.24,23.87,33.16,33.16,33.16Z"></path><path fill="#6042EC" d="M2.73,0C1.22,0,0,1.22,0,2.73V63.74c0,33.49,21.78,55.17,66.43,55.17s66.43-21.35,66.43-54.68V2.73c0-1.51-1.22-2.73-2.73-2.73h-56.48c-2.01,0-3.33,2.11-2.45,3.92l36.12,79.2c1.09,2.24-1.15,4.65-3.47,3.72l-36.4-13.89c-.65-.26-1.38-.26-2.03,0l-36.31,13.82c-2.32,.93-4.56-1.48-3.47-3.72L61.58,3.92c.88-1.81-.44-3.92-2.45-3.92H2.73Z"></path></svg> 