<?xml version="1.0" encoding="UTF-8"?> <!-- Generator: Adobe Illustrator 27.3.1, SVG Export Plug-In . SVG Version: 6.00 Build 0) --> <svg xmlns="http://www.w3.org/2000/svg" xmlns:xlink="http://www.w3.org/1999/xlink" version="1.1" id="Layer_1" x="0px" y="0px" viewBox="0 0 500 500" style="enable-background:new 0 0 500 500;" xml:space="preserve"> <style type="text/css"> .st0{fill:#FFFFFF;} </style> <path class="st0" d="M253.76,439.77c-2.38,0-4.74,0-7.12,0c-0.58-0.08-1.16-0.21-1.74-0.23c-5.21-0.18-10.44-0.26-15.64-0.52 c-5.2-0.27-10.41-0.63-15.59-1.11c-5.36-0.5-10.73-1.07-16.07-1.83c-9.17-1.3-18.28-3.05-27.29-5.27 c-19.17-4.73-37.52-11.56-54.64-21.48c-15.05-8.74-28.41-19.54-39.75-32.79c-13.3-15.55-22.73-33.24-28.82-52.73 c-3.94-12.59-6.49-25.47-7.54-38.63c-0.53-6.6-1.04-13.21-1.05-19.82c-0.07-65.17-0.05-130.32-0.04-195.48 c0-0.92,0.12-1.85,0.35-2.74c1.06-4.06,4.43-6.45,8.99-6.45c59.46,0,178.5,0,178.5,0h0.55c6.5,0.86,10.48,7.07,7.8,12.98 c-6.09,13.49-12.23,26.96-18.35,40.44c-8.64,19.03-17.28,38.05-25.92,57.08c-9.64,21.24-19.3,42.49-28.94,63.72 c-8.66,19.09-17.33,38.19-26,57.28c-4.95,10.89-9.89,21.78-14.86,32.67c-0.82,1.8-1.34,3.62-1.1,5.66 c0.57,4.96,5.71,8.75,10.53,7.44c2.9-0.79,5.7-2,8.52-3.07c36.08-13.72,72.15-27.45,108.21-41.2c2.37-0.9,4.63-0.91,6.99,0 c6.85,2.65,13.72,5.24,20.58,7.86c26.47,10.11,52.95,20.21,79.42,30.31c5.24,2,10.47,4.04,15.73,5.97c3.2,1.17,6.21,0.67,8.79-1.59 c2.63-2.3,3.75-5.25,2.85-8.66c-0.52-1.94-1.5-3.76-2.34-5.61c-8.18-17.97-16.39-35.94-24.59-53.9 c-9.47-20.76-18.93-41.51-28.39-62.28c-7.77-17.03-15.54-34.05-23.3-51.08c-9.06-19.89-18.12-39.78-27.18-59.66 c-3.26-7.16-6.53-14.31-9.78-21.47c-1.19-2.63-1.15-5.24,0.29-7.76c1.78-3.13,4.61-4.43,8.13-4.19h178.21h0.55 c4.16-0.15,7.48,2.4,8.49,6.28c0.14,0.53,0.83,1.58,0.83,1.58s0,132.11,0,198.49c-0.08,0.55-0.21,1.08-0.24,1.63 c-0.33,6.05-0.43,12.13-1.04,18.15c-0.6,5.97-1.53,11.94-2.62,17.84c-2.4,13.11-6.38,25.75-11.96,37.86 c-11.34,24.54-28.33,44.28-50.62,59.47c-15.79,10.77-33.04,18.45-51.24,24.09c-12.48,3.86-25.21,6.66-38.12,8.6 c-6.39,0.96-12.82,1.66-19.24,2.29c-5.81,0.57-11.64,0.99-17.47,1.29c-4.65,0.25-9.32,0.22-13.99,0.34 C254.92,439.55,254.34,439.69,253.76,439.77z"></path> </svg> 