<?xml version="1.0" encoding="UTF-8"?> <!-- Generator: Adobe Illustrator 27.3.1, SVG Export Plug-In . SVG Version: 6.00 Build 0) --> <svg xmlns="http://www.w3.org/2000/svg" xmlns:xlink="http://www.w3.org/1999/xlink" version="1.1" id="Capa_1" x="0px" y="0px" viewBox="0 0 560 560" style="enable-background:new 0 0 560 560;" xml:space="preserve"> <style type="text/css"> .st0{fill:#796AEA;} .st1{fill:#6042EC;} </style> <g> <path class="st0" d="M482.4,24H314c-29.6,0-53.6,24.1-53.6,53.8v84.1h60.8c38.3,0,69.4,31.1,69.4,69.5V269H417l46.7,36.5l5.6-36.5 h13.1c29.6,0,53.6-24.1,53.6-53.8V77.8C536,48.1,512,24,482.4,24z"></path> <path class="st1" d="M127.5,536c-1.2,0-2.5-0.2-3.7-0.7c-3.3-1.3-5.7-4.3-6.2-7.8l-5.9-38.7h-8.3c-43.8,0-79.4-35.7-79.4-79.6 V231.5c0-43.9,35.6-79.5,79.4-79.5h217.8c43.8,0,79.4,35.7,79.4,79.5v177.8c0,43.9-35.6,79.5-79.4,79.5H191.3l-57.7,45.1 C131.9,535.3,129.7,536,127.5,536L127.5,536z M103.4,171.9c-32.7,0-59.4,26.7-59.4,59.5v177.8c0,32.8,26.6,59.5,59.4,59.5h16.9 c4.9,0,9.1,3.6,9.9,8.5l4.6,30.3l46.9-36.7c1.8-1.4,3.9-2.1,6.2-2.1h133.3c32.7,0,59.4-26.7,59.4-59.5V231.5 c0-32.8-26.6-59.5-59.4-59.5L103.4,171.9L103.4,171.9L103.4,171.9z"></path> <g id="g1016"> <path class="st1" d="M339.7,278.3h-255c-7.4,0-13.3-6-13.3-13.3s6-13.3,13.3-13.3h255c7.4,0,13.3,6,13.3,13.3 S347.1,278.3,339.7,278.3z"></path> </g> <g id="g1020"> <path class="st1" d="M339.7,400.1h-255c-7.4,0-13.3-6-13.3-13.3s6-13.3,13.3-13.3h255c7.4,0,13.3,6,13.3,13.3 S347.1,400.1,339.7,400.1z"></path> </g> <g id="g1024"> <path class="st1" d="M126.5,339.2H84.7c-7.4,0-13.3-6-13.3-13.3s6-13.3,13.3-13.3h41.8c7.4,0,13.3,6,13.3,13.3 S133.9,339.2,126.5,339.2z"></path> </g> <g id="g1028"> <path class="st1" d="M339.8,339.2H197c-7.4,0-13.3-6-13.3-13.3s6-13.3,13.3-13.3h142.8c7.4,0,13.3,6,13.3,13.3 S347.2,339.2,339.8,339.2z"></path> </g> </g> </svg> 