<?xml version="1.0" encoding="UTF-8"?> <!-- Generator: Adobe Illustrator 27.3.1, SVG Export Plug-In . SVG Version: 6.00 Build 0) --> <svg xmlns="http://www.w3.org/2000/svg" xmlns:xlink="http://www.w3.org/1999/xlink" version="1.1" id="Capa_1" x="0px" y="0px" viewBox="0 0 560 560" style="enable-background:new 0 0 560 560;" xml:space="preserve"> <style type="text/css"> .st0{fill:#FFCA6C;} .st1{fill:#FFC040;} </style> <g> <path class="st0" d="M280,536c-2.7,0-5.3-1.1-7.2-3L225.3,484l-65.6,18.6c-2.6,0.7-5.4,0.4-7.7-1s-4-3.6-4.7-6.2l-16.7-66.1 l-66.1-16.7c-2.6-0.7-4.9-2.4-6.2-4.7c-1.3-2.3-1.7-5.1-1-7.7L76,334.7L27,287.2c-1.9-1.9-3-4.5-3-7.2s1.1-5.3,3-7.2L76,225.3 l-18.6-65.6c-0.7-2.6-0.4-5.4,1-7.7s3.6-4,6.2-4.7l66.1-16.7l16.7-66.1c0.7-2.6,2.4-4.9,4.7-6.2c2.3-1.3,5.1-1.7,7.7-1L225.3,76 L272.8,27c1.9-1.9,4.5-3,7.2-3s5.3,1.1,7.2,3L334.7,76l65.6-18.6c2.6-0.7,5.4-0.4,7.7,1s4,3.6,4.7,6.2l16.7,66.1l66.1,16.7 c2.6,0.7,4.9,2.4,6.2,4.7s1.7,5.1,1,7.7L484,225.3l48.9,47.5c1.9,1.9,3,4.5,3,7.2s-1.1,5.3-3,7.2L484,334.7l18.6,65.6 c0.7,2.6,0.4,5.4-1,7.7s-3.6,4-6.2,4.7l-66.1,16.7l-16.7,66.1c-0.7,2.6-2.4,4.9-4.7,6.2c-2.3,1.4-5.1,1.7-7.7,1L334.7,484 L287.2,533C285.3,534.9,282.7,536,280,536L280,536z M228.3,462.8c2.7,0,5.3,1.1,7.2,3l44.5,45.8l44.5-45.8c2.6-2.6,6.4-3.7,9.9-2.7 l61.4,17.5l15.6-61.9c0.9-3.6,3.7-6.4,7.2-7.2l61.9-15.6l-17.5-61.4c-1-3.5,0-7.4,2.7-9.9l45.8-44.5l-45.8-44.5 c-2.6-2.6-3.7-6.4-2.7-9.9l17.5-61.4l-61.9-15.6c-3.6-0.9-6.4-3.7-7.2-7.2l-15.6-61.9l-61.4,17.5c-3.5,1-7.4,0-9.9-2.7L280,48.4 l-44.5,45.8c-2.6,2.6-6.4,3.7-9.9,2.7l-61.4-17.4l-15.6,61.9c-0.9,3.6-3.7,6.4-7.2,7.2l-61.9,15.6l17.5,61.4c1,3.5,0,7.4-2.7,9.9 L48.4,280l45.8,44.5c2.6,2.6,3.7,6.4,2.7,9.9l-17.4,61.4l61.9,15.6c3.6,0.9,6.4,3.7,7.2,7.2l15.6,61.9l61.4-17.5 C226.5,462.9,227.4,462.8,228.3,462.8L228.3,462.8z"></path> <path class="st1" d="M250,293.2l104.1-104.1L393,228l-143,143l-83-83l38.9-38.9L250,293.2L250,293.2z"></path> </g> </svg> 