<?xml version="1.0" encoding="UTF-8"?> <!-- Generator: Adobe Illustrator 27.3.1, SVG Export Plug-In . SVG Version: 6.00 Build 0) --> <svg xmlns="http://www.w3.org/2000/svg" xmlns:xlink="http://www.w3.org/1999/xlink" version="1.1" id="Capa_1" x="0px" y="0px" viewBox="0 0 560 560" style="enable-background:new 0 0 560 560;" xml:space="preserve"> <style type="text/css"> .st0{fill:#FF9A6E;} .st1{fill:#FF8040;} </style> <g> <path class="st0" d="M465.8,83.1h-80.3v-10c0-5.5-4.5-10-10-10h-55.2c0-22.1-18-40.2-40.2-40.2s-40.2,18-40.2,40.2h-55.2 c-5.5,0-10,4.5-10,10v10H94.2c-5.5,0-10,4.5-10,10v431.8c0,5.5,4.5,10,10,10h371.5c5.5,0,10-4.5,10-10V93.2 C475.8,87.6,471.2,83.1,465.8,83.1z M194.6,83.1h56.9c3.3,0,6.3-1.6,8.2-4.2c1.9-2.7,2.4-6.1,1.3-9.1c-0.8-2.2-1.1-4.4-1.1-6.7 c0-11.1,9-20.1,20.1-20.1c13.8,0,23.6,13.7,18.9,26.8c-2.3,6.5,2.5,13.4,9.5,13.4h56.9v60.2H194.6L194.6,83.1L194.6,83.1z M455.8,514.8H104.3V103.2h70.3v50.2c0,5.5,4.5,10,10,10h190.7c5.5,0,10-4.5,10-10v-50.2h70.3v411.6H455.8L455.8,514.8z"></path> </g> <path class="st1" d="M234.9,198.5h-60.2c-5.5,0-10,4.5-10,10v54.6c0,5.5,4.5,10,10,10h60.2c5.5,0,10-4.5,10-10v-54.6 C244.9,203,240.4,198.5,234.9,198.5L234.9,198.5z M224.8,253.1h-40.2v-34.5h40.2V253.1z"></path> <path class="st1" d="M385.5,198.5H275c-5.5,0-10,4.5-10,10s4.5,10,10,10h110.4c5.5,0,10-4.5,10-10C395.5,203,391,198.5,385.5,198.5z "></path> <path class="st1" d="M275,273.2h60.3c5.5,0,10-4.5,10-10s-4.5-10-10-10H275c-5.5,0-10,4.5-10,10C264.9,268.7,269.4,273.2,275,273.2 L275,273.2z"></path> <path class="st1" d="M234.9,296.7h-60.2c-5.5,0-10,4.5-10,10v54.6c0,5.5,4.5,10,10,10h60.2c5.5,0,10-4.5,10-10v-54.6 C244.9,301.2,240.4,296.7,234.9,296.7z M224.8,351.3h-40.2v-34.5h40.2V351.3z"></path> <path class="st1" d="M385.5,296.7H275c-5.5,0-10,4.5-10,10s4.5,10,10,10h110.4c5.5,0,10-4.5,10-10 C395.5,301.2,391,296.7,385.5,296.7z"></path> <path class="st1" d="M275,371.4h60.3c5.5,0,10-4.5,10-10s-4.5-10-10-10H275c-5.5,0-10,4.5-10,10C264.9,366.9,269.4,371.4,275,371.4 L275,371.4z"></path> <path class="st1" d="M234.9,394.9h-60.2c-5.5,0-10,4.5-10,10v54.6c0,5.5,4.5,10,10,10h60.2c5.5,0,10-4.5,10-10v-54.6 C244.9,399.4,240.4,394.9,234.9,394.9z M224.8,449.5h-40.2V415h40.2V449.5z"></path> <path class="st1" d="M385.5,394.9H275c-5.5,0-10,4.5-10,10s4.5,10,10,10h110.4c5.5,0,10-4.5,10-10 C395.5,399.4,391,394.9,385.5,394.9z"></path> <path class="st1" d="M335.2,449.5H275c-5.5,0-10,4.5-10,10s4.5,10,10,10h60.2c5.5,0,10-4.5,10-10S340.8,449.5,335.2,449.5z"></path> </svg> 